<svg id="Layer_1" data-name="Layer 1" xmlns="http://www.w3.org/2000/svg" xmlns:xlink="http://www.w3.org/1999/xlink" viewBox="0 0 959.25 560"><defs><style>.cls-1{fill:url(#radial-gradient);}</style><radialGradient id="radial-gradient" cx="481.38" cy="-91.27" r="818.38" gradientTransform="translate(0 -0.47)" gradientUnits="userSpaceOnUse"><stop offset="0" stop-color="#bdc3c7"/><stop offset="1" stop-color="#2c3e50"/></radialGradient></defs><title>sweet03</title><path class="cls-1" d="M6-4.16C32.72,13,178.66,99.36,262.17-5.95A2.77,2.77,0,0,1,264.33-7H543.71a2.76,2.76,0,0,1,2.09,1c9.76,11.2,111,115.33,411.43-.46A2.77,2.77,0,0,1,961-3.93V550.23a2.77,2.77,0,0,1-2.77,2.77H4.77A2.77,2.77,0,0,1,2,550.23L1.75-1.83A2.77,2.77,0,0,1,6-4.16Z" transform="translate(-1.75 7)"/></svg>